<svg width="1200" height="1569" viewBox="0 0 1200 1569" class="keymap" xmlns="http://www.w3.org/2000/svg" xmlns:xlink="http://www.w3.org/1999/xlink">
<style>/* inherit to force styles through use tags */
svg path {
    fill: inherit;
}

/* font and background color specifications */
svg.keymap {
    font-family: SFMono-Regular,Consolas,Liberation Mono,Menlo,monospace;
    font-size: 14px;
    font-kerning: normal;
    text-rendering: optimizeLegibility;
    fill: #24292e;
}

/* default key styling */
rect.key {
    fill: #f6f8fa;
}

rect.key, rect.combo {
    stroke: #c9cccf;
    stroke-width: 1;
}

/* default key side styling, only used is draw_key_sides is set */
rect.side {
    filter: brightness(90%);
}

/* color accent for combo boxes */
rect.combo, rect.combo-separate {
    fill: #cdf;
}

/* color accent for held keys */
rect.held, rect.combo.held {
    fill: #fdd;
}

/* color accent for ghost (optional) keys */
rect.ghost, rect.combo.ghost {
    stroke-dasharray: 4, 4;
    stroke-width: 2;
}

text {
    text-anchor: middle;
    dominant-baseline: middle;
}

/* styling for layer labels */
text.label {
    font-weight: bold;
    text-anchor: start;
    stroke: white;
    stroke-width: 4;
    paint-order: stroke;
}

/* styling for optional footer */
text.footer {
    text-anchor: end;
    dominant-baseline: auto;
    stroke: white;
    stroke-width: 4;
    paint-order: stroke;
}

/* styling for combo tap, and key hold/shifted label text */
text.combo, text.hold, text.shifted {
    font-size: 11px;
}

text.hold {
    text-anchor: middle;
    dominant-baseline: auto;
}

text.shifted {
    text-anchor: middle;
    dominant-baseline: hanging;
}

/* styling for hold/shifted label text in combo box */
text.combo.hold, text.combo.shifted {
    font-size: 8px;
}

/* lighter symbol for transparent keys */
text.trans {
    fill: #7b7e81;
}

/* styling for combo dendrons */
path.combo {
    stroke-width: 1;
    stroke: gray;
    fill: none;
}

/* Start Tabler Icons Cleanup */
/* cannot use height/width with glyphs */
.icon-tabler > path {
    fill: inherit;
    stroke: inherit;
    stroke-width: 2;
}
/* hide tabler's default box */
.icon-tabler > path[stroke="none"][fill="none"] {
    visibility: hidden;
}
/* End Tabler Icons Cleanup */
</style>
<g transform="translate(0, 0)" class="layer-base">
<text x="0" y="0" class="label">base</text>
<g transform="translate(0, 0)">
<g transform="translate(40, 70)" class="key keypos-0">
<rect rx="4" ry="4" x="-38" y="-38" width="77" height="77" class="key"/>
</g>
<g transform="translate(120, 70)" class="key keypos-1">
<rect rx="4" ry="4" x="-38" y="-38" width="77" height="77" class="key"/>
</g>
<g transform="translate(200, 50)" class="key keypos-2">
<rect rx="4" ry="4" x="-38" y="-38" width="77" height="77" class="key"/>
<text x="0" y="0" class="key tap">W</text>
</g>
<g transform="translate(280, 40)" class="key keypos-3">
<rect rx="4" ry="4" x="-38" y="-38" width="77" height="77" class="key"/>
<text x="0" y="0" class="key tap">E</text>
</g>
<g transform="translate(360, 50)" class="key keypos-4">
<rect rx="4" ry="4" x="-38" y="-38" width="77" height="77" class="key"/>
<text x="0" y="0" class="key tap">R</text>
</g>
<g transform="translate(440, 60)" class="key keypos-5">
<rect rx="4" ry="4" x="-38" y="-38" width="77" height="77" class="key"/>
<text x="0" y="0" class="key tap">T</text>
</g>
<g transform="translate(760, 60)" class="key keypos-6">
<rect rx="4" ry="4" x="-38" y="-38" width="77" height="77" class="key"/>
<text x="0" y="0" class="key tap">Y</text>
</g>
<g transform="translate(840, 50)" class="key keypos-7">
<rect rx="4" ry="4" x="-38" y="-38" width="77" height="77" class="key"/>
<text x="0" y="0" class="key tap">U</text>
</g>
<g transform="translate(920, 40)" class="key keypos-8">
<rect rx="4" ry="4" x="-38" y="-38" width="77" height="77" class="key"/>
<text x="0" y="0" class="key tap">I</text>
</g>
<g transform="translate(1000, 50)" class="key keypos-9">
<rect rx="4" ry="4" x="-38" y="-38" width="77" height="77" class="key"/>
<text x="0" y="0" class="key tap">O</text>
</g>
<g transform="translate(1080, 70)" class="key keypos-10">
<rect rx="4" ry="4" x="-38" y="-38" width="77" height="77" class="key"/>
</g>
<g transform="translate(1160, 70)" class="key keypos-11">
<rect rx="4" ry="4" x="-38" y="-38" width="77" height="77" class="key"/>
</g>
<g transform="translate(40, 150)" class="key keypos-12">
<rect rx="4" ry="4" x="-38" y="-38" width="77" height="77" class="key"/>
</g>
<g transform="translate(120, 150)" class="key keypos-13">
<rect rx="4" ry="4" x="-38" y="-38" width="77" height="77" class="key"/>
<text x="0" y="0" class="key tap">A</text>
</g>
<g transform="translate(200, 130)" class="key keypos-14">
<rect rx="4" ry="4" x="-38" y="-38" width="77" height="77" class="key"/>
<text x="0" y="0" class="key tap">S</text>
</g>
<g transform="translate(280, 120)" class="key keypos-15">
<rect rx="4" ry="4" x="-38" y="-38" width="77" height="77" class="key"/>
<text x="0" y="0" class="key tap">D</text>
</g>
<g transform="translate(360, 130)" class="key keypos-16">
<rect rx="4" ry="4" x="-38" y="-38" width="77" height="77" class="key"/>
<text x="0" y="0" class="key tap">F</text>
</g>
<g transform="translate(440, 140)" class="key keypos-17">
<rect rx="4" ry="4" x="-38" y="-38" width="77" height="77" class="key"/>
<text x="0" y="0" class="key tap">G</text>
</g>
<g transform="translate(760, 140)" class="key keypos-18">
<rect rx="4" ry="4" x="-38" y="-38" width="77" height="77" class="key"/>
<text x="0" y="0" class="key tap">H</text>
</g>
<g transform="translate(840, 130)" class="key keypos-19">
<rect rx="4" ry="4" x="-38" y="-38" width="77" height="77" class="key"/>
<text x="0" y="0" class="key tap">J</text>
</g>
<g transform="translate(920, 120)" class="key keypos-20">
<rect rx="4" ry="4" x="-38" y="-38" width="77" height="77" class="key"/>
<text x="0" y="0" class="key tap">K</text>
</g>
<g transform="translate(1000, 130)" class="key keypos-21">
<rect rx="4" ry="4" x="-38" y="-38" width="77" height="77" class="key"/>
<text x="0" y="0" class="key tap">L</text>
</g>
<g transform="translate(1080, 150)" class="key keypos-22">
<rect rx="4" ry="4" x="-38" y="-38" width="77" height="77" class="key"/>
<text x="0" y="0" class="key tap">P</text>
</g>
<g transform="translate(1160, 150)" class="key keypos-23">
<rect rx="4" ry="4" x="-38" y="-38" width="77" height="77" class="key"/>
</g>
<g transform="translate(40, 230)" class="key keypos-24">
<rect rx="4" ry="4" x="-38" y="-38" width="77" height="77" class="key"/>
</g>
<g transform="translate(120, 230)" class="key keypos-25">
<rect rx="4" ry="4" x="-38" y="-38" width="77" height="77" class="key"/>
<text x="0" y="0" class="key tap">Z</text>
</g>
<g transform="translate(200, 210)" class="key keypos-26">
<rect rx="4" ry="4" x="-38" y="-38" width="77" height="77" class="key"/>
<text x="0" y="0" class="key tap">X</text>
</g>
<g transform="translate(280, 200)" class="key keypos-27">
<rect rx="4" ry="4" x="-38" y="-38" width="77" height="77" class="key"/>
<text x="0" y="0" class="key tap">C</text>
</g>
<g transform="translate(360, 210)" class="key keypos-28">
<rect rx="4" ry="4" x="-38" y="-38" width="77" height="77" class="key"/>
<text x="0" y="0" class="key tap">V</text>
</g>
<g transform="translate(440, 220)" class="key keypos-29">
<rect rx="4" ry="4" x="-38" y="-38" width="77" height="77" class="key"/>
<text x="0" y="0" class="key tap">B</text>
</g>
<g transform="translate(760, 220)" class="key keypos-30">
<rect rx="4" ry="4" x="-38" y="-38" width="77" height="77" class="key"/>
<text x="0" y="0" class="key tap">N</text>
</g>
<g transform="translate(840, 210)" class="key keypos-31">
<rect rx="4" ry="4" x="-38" y="-38" width="77" height="77" class="key"/>
<text x="0" y="0" class="key tap">M</text>
</g>
<g transform="translate(920, 200)" class="key keypos-32">
<rect rx="4" ry="4" x="-38" y="-38" width="77" height="77" class="key"/>
<text x="0" y="0" class="key tap">,</text>
</g>
<g transform="translate(1000, 210)" class="key keypos-33">
<rect rx="4" ry="4" x="-38" y="-38" width="77" height="77" class="key"/>
<text x="0" y="0" class="key tap">.</text>
</g>
<g transform="translate(1080, 230)" class="key keypos-34">
<rect rx="4" ry="4" x="-38" y="-38" width="77" height="77" class="key"/>
<text x="0" y="0" class="key tap">;</text>
</g>
<g transform="translate(1160, 230)" class="key keypos-35">
<rect rx="4" ry="4" x="-38" y="-38" width="77" height="77" class="key"/>
</g>
<g transform="translate(320, 293)" class="key keypos-36">
<rect rx="4" ry="4" x="-38" y="-38" width="77" height="77" class="key"/>
</g>
<g transform="translate(408, 304) rotate(15.0)" class="key keypos-37">
<rect rx="4" ry="4" x="-38" y="-38" width="77" height="77" class="key"/>
<text x="0" y="0" class="key tap">_sym</text>
</g>
<g transform="translate(502, 320) rotate(30.0)" class="key keypos-38">
<rect rx="4" ry="4" x="-38" y="-58" width="77" height="117" class="key"/>
<text x="0" y="0" class="key tap">SPACE</text>
</g>
<g transform="translate(698, 320) rotate(-30.0)" class="key keypos-39">
<rect rx="4" ry="4" x="-38" y="-58" width="77" height="117" class="key"/>
<text x="0" y="0" class="key tap">LSHFT</text>
</g>
<g transform="translate(792, 304) rotate(-15.0)" class="key keypos-40">
<rect rx="4" ry="4" x="-38" y="-38" width="77" height="77" class="key"/>
<text x="0" y="0" class="key tap">_num</text>
</g>
<g transform="translate(880, 293)" class="key keypos-41">
<rect rx="4" ry="4" x="-38" y="-38" width="77" height="77" class="key"/>
</g>
<g class="combo combopos-0">
<rect rx="4" ry="4" x="142" y="42" width="36" height="36" class="combo"/>
<text x="160" y="60" class="combo tap">TAB</text>
</g>
<g class="combo combopos-1">
<path d="M600,320 l-72,0" class="combo"/>
<path d="M600,320 l72,0" class="combo"/>
<rect rx="4" ry="4" x="582" y="302" width="36" height="36" class="combo"/>
<text x="600" y="320" class="combo tap">DEL</text>
</g>
<g class="combo combopos-2">
<rect rx="4" ry="4" x="142" y="202" width="36" height="36" class="combo"/>
<text x="160" y="220" class="combo tap">LCTRL</text>
<text x="160" y="234" class="combo hold"><tspan style="font-size: 83%">sticky</tspan></text>
</g>
<g class="combo combopos-3">
<rect rx="4" ry="4" x="1022" y="202" width="36" height="36" class="combo"/>
<text x="1040" y="220" class="combo tap">ENTER</text>
</g>
<g class="combo combopos-4">
<rect rx="4" ry="4" x="302" y="187" width="36" height="36" class="combo"/>
<text x="320" y="205" class="combo tap">LGUI</text>
<text x="320" y="219" class="combo hold"><tspan style="font-size: 83%">sticky</tspan></text>
</g>
<g class="combo combopos-5">
<rect rx="4" ry="4" x="862" y="187" width="36" height="36" class="combo"/>
<text x="880" y="205" class="combo tap">RALT</text>
<text x="880" y="219" class="combo hold"><tspan style="font-size: 83%">sticky</tspan></text>
</g>
<g class="combo combopos-6">
<rect rx="4" ry="4" x="1022" y="42" width="36" height="36" class="combo"/>
<text x="1040" y="60" class="combo tap">BSPC</text>
</g>
<g class="combo combopos-7">
<rect rx="4" ry="4" x="102" y="92" width="36" height="36" class="combo"/>
<text x="120" y="110" class="combo tap">[</text>
</g>
<g class="combo combopos-8">
<rect rx="4" ry="4" x="182" y="72" width="36" height="36" class="combo"/>
<text x="200" y="90" class="combo tap">(</text>
</g>
<g class="combo combopos-9">
<rect rx="4" ry="4" x="262" y="62" width="36" height="36" class="combo"/>
<text x="280" y="80" class="combo tap">{</text>
</g>
<g class="combo combopos-10">
<rect rx="4" ry="4" x="902" y="62" width="36" height="36" class="combo"/>
<text x="920" y="80" class="combo tap">}</text>
</g>
<g class="combo combopos-11">
<rect rx="4" ry="4" x="982" y="72" width="36" height="36" class="combo"/>
<text x="1000" y="90" class="combo tap">)</text>
</g>
<g class="combo combopos-12">
<rect rx="4" ry="4" x="1062" y="92" width="36" height="36" class="combo"/>
<text x="1080" y="110" class="combo tap">]</text>
</g>
<g class="combo combopos-13">
<rect rx="4" ry="4" x="62" y="92" width="36" height="36" class="combo"/>
<text x="80" y="110" class="combo tap">Q</text>
</g>
</g>
</g>
<g transform="translate(0, 392)" class="layer-_num">
<text x="0" y="0" class="label">_num</text>
<g transform="translate(0, 0)">
<g transform="translate(40, 70)" class="key keypos-0">
<rect rx="4" ry="4" x="-38" y="-38" width="77" height="77" class="key"/>
</g>
<g transform="translate(120, 70)" class="key keypos-1">
<rect rx="4" ry="4" x="-38" y="-38" width="77" height="77" class="key"/>
</g>
<g transform="translate(200, 50)" class="key keypos-2">
<rect rx="4" ry="4" x="-38" y="-38" width="77" height="77" class="key"/>
<text x="0" y="0" class="key tap">6</text>
</g>
<g transform="translate(280, 40)" class="key keypos-3">
<rect rx="4" ry="4" x="-38" y="-38" width="77" height="77" class="key"/>
<text x="0" y="0" class="key tap">5</text>
</g>
<g transform="translate(360, 50)" class="key keypos-4">
<rect rx="4" ry="4" x="-38" y="-38" width="77" height="77" class="key"/>
<text x="0" y="0" class="key tap">4</text>
</g>
<g transform="translate(440, 60)" class="key keypos-5">
<rect rx="4" ry="4" x="-38" y="-38" width="77" height="77" class="key"/>
<text x="0" y="0" class="key tap">ESC</text>
</g>
<g transform="translate(760, 60)" class="key keypos-6">
<rect rx="4" ry="4" x="-38" y="-38" width="77" height="77" class="key"/>
</g>
<g transform="translate(840, 50)" class="key keypos-7">
<rect rx="4" ry="4" x="-38" y="-38" width="77" height="77" class="key"/>
<text x="0" y="0" class="key tap">\</text>
</g>
<g transform="translate(920, 40)" class="key keypos-8">
<rect rx="4" ry="4" x="-38" y="-38" width="77" height="77" class="key"/>
<text x="0" y="0" class="key tap">*</text>
</g>
<g transform="translate(1000, 50)" class="key keypos-9">
<rect rx="4" ry="4" x="-38" y="-38" width="77" height="77" class="key"/>
<text x="0" y="0" class="key tap">/</text>
</g>
<g transform="translate(1080, 70)" class="key keypos-10">
<rect rx="4" ry="4" x="-38" y="-38" width="77" height="77" class="key"/>
</g>
<g transform="translate(1160, 70)" class="key keypos-11">
<rect rx="4" ry="4" x="-38" y="-38" width="77" height="77" class="key"/>
</g>
<g transform="translate(40, 150)" class="key keypos-12">
<rect rx="4" ry="4" x="-38" y="-38" width="77" height="77" class="key"/>
</g>
<g transform="translate(120, 150)" class="key keypos-13">
<rect rx="4" ry="4" x="-38" y="-38" width="77" height="77" class="key"/>
</g>
<g transform="translate(200, 130)" class="key keypos-14">
<rect rx="4" ry="4" x="-38" y="-38" width="77" height="77" class="key"/>
<text x="0" y="0" class="key tap">3</text>
</g>
<g transform="translate(280, 120)" class="key keypos-15">
<rect rx="4" ry="4" x="-38" y="-38" width="77" height="77" class="key"/>
<text x="0" y="0" class="key tap">2</text>
</g>
<g transform="translate(360, 130)" class="key keypos-16">
<rect rx="4" ry="4" x="-38" y="-38" width="77" height="77" class="key"/>
<text x="0" y="0" class="key tap">1</text>
</g>
<g transform="translate(440, 140)" class="key keypos-17">
<rect rx="4" ry="4" x="-38" y="-38" width="77" height="77" class="key"/>
<text x="0" y="0" class="key tap">0</text>
</g>
<g transform="translate(760, 140)" class="key keypos-18">
<rect rx="4" ry="4" x="-38" y="-38" width="77" height="77" class="key"/>
</g>
<g transform="translate(840, 130)" class="key keypos-19">
<rect rx="4" ry="4" x="-38" y="-38" width="77" height="77" class="key"/>
<text x="0" y="0" class="key tap">&#x27;</text>
</g>
<g transform="translate(920, 120)" class="key keypos-20">
<rect rx="4" ry="4" x="-38" y="-38" width="77" height="77" class="key"/>
<text x="0" y="0" class="key tap">_</text>
</g>
<g transform="translate(1000, 130)" class="key keypos-21">
<rect rx="4" ry="4" x="-38" y="-38" width="77" height="77" class="key"/>
<text x="0" y="0" class="key tap">-</text>
</g>
<g transform="translate(1080, 150)" class="key keypos-22">
<rect rx="4" ry="4" x="-38" y="-38" width="77" height="77" class="key"/>
</g>
<g transform="translate(1160, 150)" class="key keypos-23">
<rect rx="4" ry="4" x="-38" y="-38" width="77" height="77" class="key"/>
</g>
<g transform="translate(40, 230)" class="key keypos-24">
<rect rx="4" ry="4" x="-38" y="-38" width="77" height="77" class="key"/>
</g>
<g transform="translate(120, 230)" class="key keypos-25">
<rect rx="4" ry="4" x="-38" y="-38" width="77" height="77" class="key"/>
</g>
<g transform="translate(200, 210)" class="key keypos-26">
<rect rx="4" ry="4" x="-38" y="-38" width="77" height="77" class="key"/>
<text x="0" y="0" class="key tap">9</text>
</g>
<g transform="translate(280, 200)" class="key keypos-27">
<rect rx="4" ry="4" x="-38" y="-38" width="77" height="77" class="key"/>
<text x="0" y="0" class="key tap">8</text>
</g>
<g transform="translate(360, 210)" class="key keypos-28">
<rect rx="4" ry="4" x="-38" y="-38" width="77" height="77" class="key"/>
<text x="0" y="0" class="key tap">7</text>
</g>
<g transform="translate(440, 220)" class="key keypos-29">
<rect rx="4" ry="4" x="-38" y="-38" width="77" height="77" class="key"/>
<text x="0" y="0" class="key tap">.</text>
</g>
<g transform="translate(760, 220)" class="key keypos-30">
<rect rx="4" ry="4" x="-38" y="-38" width="77" height="77" class="key"/>
</g>
<g transform="translate(840, 210)" class="key keypos-31">
<rect rx="4" ry="4" x="-38" y="-38" width="77" height="77" class="key"/>
<text x="0" y="0" class="key tap">&quot;</text>
</g>
<g transform="translate(920, 200)" class="key keypos-32">
<rect rx="4" ry="4" x="-38" y="-38" width="77" height="77" class="key"/>
<text x="0" y="0" class="key tap">=</text>
</g>
<g transform="translate(1000, 210)" class="key keypos-33">
<rect rx="4" ry="4" x="-38" y="-38" width="77" height="77" class="key"/>
<text x="0" y="0" class="key tap">+</text>
</g>
<g transform="translate(1080, 230)" class="key keypos-34">
<rect rx="4" ry="4" x="-38" y="-38" width="77" height="77" class="key"/>
<text x="0" y="0" class="key tap">_fun</text>
</g>
<g transform="translate(1160, 230)" class="key keypos-35">
<rect rx="4" ry="4" x="-38" y="-38" width="77" height="77" class="key"/>
</g>
<g transform="translate(320, 293)" class="key keypos-36">
<rect rx="4" ry="4" x="-38" y="-38" width="77" height="77" class="key"/>
</g>
<g transform="translate(408, 304) rotate(15.0)" class="key trans keypos-37">
<rect rx="4" ry="4" x="-38" y="-38" width="77" height="77" class="key trans"/>
<text x="0" y="0" class="key trans tap">▽</text>
</g>
<g transform="translate(502, 320) rotate(30.0)" class="key trans keypos-38">
<rect rx="4" ry="4" x="-38" y="-58" width="77" height="117" class="key trans"/>
<text x="0" y="0" class="key trans tap">▽</text>
</g>
<g transform="translate(698, 320) rotate(-30.0)" class="key trans keypos-39">
<rect rx="4" ry="4" x="-38" y="-58" width="77" height="117" class="key trans"/>
<text x="0" y="0" class="key trans tap">▽</text>
</g>
<g transform="translate(792, 304) rotate(-15.0)" class="key held keypos-40">
<rect rx="4" ry="4" x="-38" y="-38" width="77" height="77" class="key held"/>
</g>
<g transform="translate(880, 293)" class="key keypos-41">
<rect rx="4" ry="4" x="-38" y="-38" width="77" height="77" class="key"/>
</g>
<g class="combo combopos-0">
<rect rx="4" ry="4" x="142" y="42" width="36" height="36" class="combo"/>
<text x="160" y="60" class="combo tap">TAB</text>
</g>
<g class="combo combopos-1">
<path d="M600,320 l-72,0" class="combo"/>
<path d="M600,320 l72,0" class="combo"/>
<rect rx="4" ry="4" x="582" y="302" width="36" height="36" class="combo"/>
<text x="600" y="320" class="combo tap">DEL</text>
</g>
<g class="combo combopos-2">
<rect rx="4" ry="4" x="142" y="202" width="36" height="36" class="combo"/>
<text x="160" y="220" class="combo tap">LCTRL</text>
<text x="160" y="234" class="combo hold"><tspan style="font-size: 83%">sticky</tspan></text>
</g>
<g class="combo combopos-3">
<rect rx="4" ry="4" x="1022" y="202" width="36" height="36" class="combo"/>
<text x="1040" y="220" class="combo tap">ENTER</text>
</g>
<g class="combo combopos-4">
<rect rx="4" ry="4" x="302" y="187" width="36" height="36" class="combo"/>
<text x="320" y="205" class="combo tap">LGUI</text>
<text x="320" y="219" class="combo hold"><tspan style="font-size: 83%">sticky</tspan></text>
</g>
<g class="combo combopos-5">
<rect rx="4" ry="4" x="862" y="187" width="36" height="36" class="combo"/>
<text x="880" y="205" class="combo tap">RALT</text>
<text x="880" y="219" class="combo hold"><tspan style="font-size: 83%">sticky</tspan></text>
</g>
<g class="combo combopos-6">
<rect rx="4" ry="4" x="1022" y="42" width="36" height="36" class="combo"/>
<text x="1040" y="60" class="combo tap">BSPC</text>
</g>
<g class="combo combopos-7">
<rect rx="4" ry="4" x="102" y="92" width="36" height="36" class="combo"/>
<text x="120" y="110" class="combo tap">[</text>
</g>
<g class="combo combopos-8">
<rect rx="4" ry="4" x="182" y="72" width="36" height="36" class="combo"/>
<text x="200" y="90" class="combo tap">(</text>
</g>
<g class="combo combopos-9">
<rect rx="4" ry="4" x="262" y="62" width="36" height="36" class="combo"/>
<text x="280" y="80" class="combo tap">{</text>
</g>
<g class="combo combopos-10">
<rect rx="4" ry="4" x="902" y="62" width="36" height="36" class="combo"/>
<text x="920" y="80" class="combo tap">}</text>
</g>
<g class="combo combopos-11">
<rect rx="4" ry="4" x="982" y="72" width="36" height="36" class="combo"/>
<text x="1000" y="90" class="combo tap">)</text>
</g>
<g class="combo combopos-12">
<rect rx="4" ry="4" x="1062" y="92" width="36" height="36" class="combo"/>
<text x="1080" y="110" class="combo tap">]</text>
</g>
</g>
</g>
<g transform="translate(0, 785)" class="layer-_sym">
<text x="0" y="0" class="label">_sym</text>
<g transform="translate(0, 0)">
<g transform="translate(40, 70)" class="key keypos-0">
<rect rx="4" ry="4" x="-38" y="-38" width="77" height="77" class="key"/>
</g>
<g transform="translate(120, 70)" class="key keypos-1">
<rect rx="4" ry="4" x="-38" y="-38" width="77" height="77" class="key"/>
</g>
<g transform="translate(200, 50)" class="key keypos-2">
<rect rx="4" ry="4" x="-38" y="-38" width="77" height="77" class="key"/>
<text x="0" y="0" class="key tap">~</text>
</g>
<g transform="translate(280, 40)" class="key keypos-3">
<rect rx="4" ry="4" x="-38" y="-38" width="77" height="77" class="key"/>
<text x="0" y="0" class="key tap">`</text>
</g>
<g transform="translate(360, 50)" class="key keypos-4">
<rect rx="4" ry="4" x="-38" y="-38" width="77" height="77" class="key"/>
<text x="0" y="0" class="key tap">|</text>
</g>
<g transform="translate(440, 60)" class="key keypos-5">
<rect rx="4" ry="4" x="-38" y="-38" width="77" height="77" class="key"/>
</g>
<g transform="translate(760, 60)" class="key keypos-6">
<rect rx="4" ry="4" x="-38" y="-38" width="77" height="77" class="key"/>
</g>
<g transform="translate(840, 50)" class="key keypos-7">
<rect rx="4" ry="4" x="-38" y="-38" width="77" height="77" class="key"/>
<text x="0" y="0" class="key tap">
<tspan x="0" dy="-0.5em">PG</tspan><tspan x="0" dy="1.0em">UP</tspan>
</text>
</g>
<g transform="translate(920, 40)" class="key keypos-8">
<rect rx="4" ry="4" x="-38" y="-38" width="77" height="77" class="key"/>
<text x="0" y="0" class="key tap">UP</text>
</g>
<g transform="translate(1000, 50)" class="key keypos-9">
<rect rx="4" ry="4" x="-38" y="-38" width="77" height="77" class="key"/>
<text x="0" y="0" class="key tap">
<tspan x="0" dy="-0.5em">PG</tspan><tspan x="0" dy="1.0em">DN</tspan>
</text>
</g>
<g transform="translate(1080, 70)" class="key keypos-10">
<rect rx="4" ry="4" x="-38" y="-38" width="77" height="77" class="key"/>
</g>
<g transform="translate(1160, 70)" class="key keypos-11">
<rect rx="4" ry="4" x="-38" y="-38" width="77" height="77" class="key"/>
</g>
<g transform="translate(40, 150)" class="key keypos-12">
<rect rx="4" ry="4" x="-38" y="-38" width="77" height="77" class="key"/>
</g>
<g transform="translate(120, 150)" class="key keypos-13">
<rect rx="4" ry="4" x="-38" y="-38" width="77" height="77" class="key"/>
<text x="0" y="0" class="key tap">!</text>
</g>
<g transform="translate(200, 130)" class="key keypos-14">
<rect rx="4" ry="4" x="-38" y="-38" width="77" height="77" class="key"/>
<text x="0" y="0" class="key tap">@</text>
</g>
<g transform="translate(280, 120)" class="key keypos-15">
<rect rx="4" ry="4" x="-38" y="-38" width="77" height="77" class="key"/>
<text x="0" y="0" class="key tap">#</text>
</g>
<g transform="translate(360, 130)" class="key keypos-16">
<rect rx="4" ry="4" x="-38" y="-38" width="77" height="77" class="key"/>
<text x="0" y="0" class="key tap">$</text>
</g>
<g transform="translate(440, 140)" class="key keypos-17">
<rect rx="4" ry="4" x="-38" y="-38" width="77" height="77" class="key"/>
</g>
<g transform="translate(760, 140)" class="key keypos-18">
<rect rx="4" ry="4" x="-38" y="-38" width="77" height="77" class="key"/>
</g>
<g transform="translate(840, 130)" class="key keypos-19">
<rect rx="4" ry="4" x="-38" y="-38" width="77" height="77" class="key"/>
<text x="0" y="0" class="key tap">LEFT</text>
</g>
<g transform="translate(920, 120)" class="key keypos-20">
<rect rx="4" ry="4" x="-38" y="-38" width="77" height="77" class="key"/>
<text x="0" y="0" class="key tap">DOWN</text>
</g>
<g transform="translate(1000, 130)" class="key keypos-21">
<rect rx="4" ry="4" x="-38" y="-38" width="77" height="77" class="key"/>
<text x="0" y="0" class="key tap">RIGHT</text>
</g>
<g transform="translate(1080, 150)" class="key keypos-22">
<rect rx="4" ry="4" x="-38" y="-38" width="77" height="77" class="key"/>
</g>
<g transform="translate(1160, 150)" class="key keypos-23">
<rect rx="4" ry="4" x="-38" y="-38" width="77" height="77" class="key"/>
</g>
<g transform="translate(40, 230)" class="key keypos-24">
<rect rx="4" ry="4" x="-38" y="-38" width="77" height="77" class="key"/>
</g>
<g transform="translate(120, 230)" class="key keypos-25">
<rect rx="4" ry="4" x="-38" y="-38" width="77" height="77" class="key"/>
<text x="0" y="0" class="key tap">?</text>
</g>
<g transform="translate(200, 210)" class="key keypos-26">
<rect rx="4" ry="4" x="-38" y="-38" width="77" height="77" class="key"/>
<text x="0" y="0" class="key tap">^</text>
</g>
<g transform="translate(280, 200)" class="key keypos-27">
<rect rx="4" ry="4" x="-38" y="-38" width="77" height="77" class="key"/>
<text x="0" y="0" class="key tap">&amp;</text>
</g>
<g transform="translate(360, 210)" class="key keypos-28">
<rect rx="4" ry="4" x="-38" y="-38" width="77" height="77" class="key"/>
<text x="0" y="0" class="key tap">%</text>
</g>
<g transform="translate(440, 220)" class="key keypos-29">
<rect rx="4" ry="4" x="-38" y="-38" width="77" height="77" class="key"/>
</g>
<g transform="translate(760, 220)" class="key keypos-30">
<rect rx="4" ry="4" x="-38" y="-38" width="77" height="77" class="key"/>
</g>
<g transform="translate(840, 210)" class="key keypos-31">
<rect rx="4" ry="4" x="-38" y="-38" width="77" height="77" class="key"/>
<text x="0" y="0" class="key tap">HOME</text>
</g>
<g transform="translate(920, 200)" class="key keypos-32">
<rect rx="4" ry="4" x="-38" y="-38" width="77" height="77" class="key"/>
</g>
<g transform="translate(1000, 210)" class="key keypos-33">
<rect rx="4" ry="4" x="-38" y="-38" width="77" height="77" class="key"/>
<text x="0" y="0" class="key tap">END</text>
</g>
<g transform="translate(1080, 230)" class="key keypos-34">
<rect rx="4" ry="4" x="-38" y="-38" width="77" height="77" class="key"/>
</g>
<g transform="translate(1160, 230)" class="key keypos-35">
<rect rx="4" ry="4" x="-38" y="-38" width="77" height="77" class="key"/>
</g>
<g transform="translate(320, 293)" class="key keypos-36">
<rect rx="4" ry="4" x="-38" y="-38" width="77" height="77" class="key"/>
</g>
<g transform="translate(408, 304) rotate(15.0)" class="key held keypos-37">
<rect rx="4" ry="4" x="-38" y="-38" width="77" height="77" class="key held"/>
</g>
<g transform="translate(502, 320) rotate(30.0)" class="key trans keypos-38">
<rect rx="4" ry="4" x="-38" y="-58" width="77" height="117" class="key trans"/>
<text x="0" y="0" class="key trans tap">▽</text>
</g>
<g transform="translate(698, 320) rotate(-30.0)" class="key trans keypos-39">
<rect rx="4" ry="4" x="-38" y="-58" width="77" height="117" class="key trans"/>
<text x="0" y="0" class="key trans tap">▽</text>
</g>
<g transform="translate(792, 304) rotate(-15.0)" class="key trans keypos-40">
<rect rx="4" ry="4" x="-38" y="-38" width="77" height="77" class="key trans"/>
<text x="0" y="0" class="key trans tap">▽</text>
</g>
<g transform="translate(880, 293)" class="key keypos-41">
<rect rx="4" ry="4" x="-38" y="-38" width="77" height="77" class="key"/>
</g>
<g class="combo combopos-0">
<rect rx="4" ry="4" x="142" y="42" width="36" height="36" class="combo"/>
<text x="160" y="60" class="combo tap">TAB</text>
</g>
<g class="combo combopos-1">
<path d="M600,320 l-72,0" class="combo"/>
<path d="M600,320 l72,0" class="combo"/>
<rect rx="4" ry="4" x="582" y="302" width="36" height="36" class="combo"/>
<text x="600" y="320" class="combo tap">DEL</text>
</g>
<g class="combo combopos-2">
<rect rx="4" ry="4" x="142" y="202" width="36" height="36" class="combo"/>
<text x="160" y="220" class="combo tap">LCTRL</text>
<text x="160" y="234" class="combo hold"><tspan style="font-size: 83%">sticky</tspan></text>
</g>
<g class="combo combopos-3">
<rect rx="4" ry="4" x="1022" y="202" width="36" height="36" class="combo"/>
<text x="1040" y="220" class="combo tap">ENTER</text>
</g>
<g class="combo combopos-4">
<rect rx="4" ry="4" x="302" y="187" width="36" height="36" class="combo"/>
<text x="320" y="205" class="combo tap">LGUI</text>
<text x="320" y="219" class="combo hold"><tspan style="font-size: 83%">sticky</tspan></text>
</g>
<g class="combo combopos-5">
<rect rx="4" ry="4" x="862" y="187" width="36" height="36" class="combo"/>
<text x="880" y="205" class="combo tap">RALT</text>
<text x="880" y="219" class="combo hold"><tspan style="font-size: 83%">sticky</tspan></text>
</g>
<g class="combo combopos-6">
<rect rx="4" ry="4" x="1022" y="42" width="36" height="36" class="combo"/>
<text x="1040" y="60" class="combo tap">BSPC</text>
</g>
</g>
</g>
<g transform="translate(0, 1177)" class="layer-_fun">
<text x="0" y="0" class="label">_fun</text>
<g transform="translate(0, 0)">
<g transform="translate(40, 70)" class="key keypos-0">
<rect rx="4" ry="4" x="-38" y="-38" width="77" height="77" class="key"/>
</g>
<g transform="translate(120, 70)" class="key keypos-1">
<rect rx="4" ry="4" x="-38" y="-38" width="77" height="77" class="key"/>
</g>
<g transform="translate(200, 50)" class="key keypos-2">
<rect rx="4" ry="4" x="-38" y="-38" width="77" height="77" class="key"/>
<text x="0" y="0" class="key tap">F6</text>
</g>
<g transform="translate(280, 40)" class="key keypos-3">
<rect rx="4" ry="4" x="-38" y="-38" width="77" height="77" class="key"/>
<text x="0" y="0" class="key tap">F5</text>
</g>
<g transform="translate(360, 50)" class="key keypos-4">
<rect rx="4" ry="4" x="-38" y="-38" width="77" height="77" class="key"/>
<text x="0" y="0" class="key tap">F4</text>
</g>
<g transform="translate(440, 60)" class="key keypos-5">
<rect rx="4" ry="4" x="-38" y="-38" width="77" height="77" class="key"/>
<text x="0" y="0" class="key tap">F11</text>
</g>
<g transform="translate(760, 60)" class="key keypos-6">
<rect rx="4" ry="4" x="-38" y="-38" width="77" height="77" class="key"/>
</g>
<g transform="translate(840, 50)" class="key keypos-7">
<rect rx="4" ry="4" x="-38" y="-38" width="77" height="77" class="key"/>
</g>
<g transform="translate(920, 40)" class="key keypos-8">
<rect rx="4" ry="4" x="-38" y="-38" width="77" height="77" class="key"/>
</g>
<g transform="translate(1000, 50)" class="key keypos-9">
<rect rx="4" ry="4" x="-38" y="-38" width="77" height="77" class="key"/>
</g>
<g transform="translate(1080, 70)" class="key keypos-10">
<rect rx="4" ry="4" x="-38" y="-38" width="77" height="77" class="key"/>
</g>
<g transform="translate(1160, 70)" class="key keypos-11">
<rect rx="4" ry="4" x="-38" y="-38" width="77" height="77" class="key"/>
</g>
<g transform="translate(40, 150)" class="key keypos-12">
<rect rx="4" ry="4" x="-38" y="-38" width="77" height="77" class="key"/>
</g>
<g transform="translate(120, 150)" class="key keypos-13">
<rect rx="4" ry="4" x="-38" y="-38" width="77" height="77" class="key"/>
</g>
<g transform="translate(200, 130)" class="key keypos-14">
<rect rx="4" ry="4" x="-38" y="-38" width="77" height="77" class="key"/>
<text x="0" y="0" class="key tap">F3</text>
</g>
<g transform="translate(280, 120)" class="key keypos-15">
<rect rx="4" ry="4" x="-38" y="-38" width="77" height="77" class="key"/>
<text x="0" y="0" class="key tap">F2</text>
</g>
<g transform="translate(360, 130)" class="key keypos-16">
<rect rx="4" ry="4" x="-38" y="-38" width="77" height="77" class="key"/>
<text x="0" y="0" class="key tap">F1</text>
</g>
<g transform="translate(440, 140)" class="key keypos-17">
<rect rx="4" ry="4" x="-38" y="-38" width="77" height="77" class="key"/>
<text x="0" y="0" class="key tap">F10</text>
</g>
<g transform="translate(760, 140)" class="key keypos-18">
<rect rx="4" ry="4" x="-38" y="-38" width="77" height="77" class="key"/>
</g>
<g transform="translate(840, 130)" class="key keypos-19">
<rect rx="4" ry="4" x="-38" y="-38" width="77" height="77" class="key"/>
</g>
<g transform="translate(920, 120)" class="key keypos-20">
<rect rx="4" ry="4" x="-38" y="-38" width="77" height="77" class="key"/>
</g>
<g transform="translate(1000, 130)" class="key keypos-21">
<rect rx="4" ry="4" x="-38" y="-38" width="77" height="77" class="key"/>
</g>
<g transform="translate(1080, 150)" class="key keypos-22">
<rect rx="4" ry="4" x="-38" y="-38" width="77" height="77" class="key"/>
</g>
<g transform="translate(1160, 150)" class="key keypos-23">
<rect rx="4" ry="4" x="-38" y="-38" width="77" height="77" class="key"/>
</g>
<g transform="translate(40, 230)" class="key keypos-24">
<rect rx="4" ry="4" x="-38" y="-38" width="77" height="77" class="key"/>
</g>
<g transform="translate(120, 230)" class="key keypos-25">
<rect rx="4" ry="4" x="-38" y="-38" width="77" height="77" class="key"/>
</g>
<g transform="translate(200, 210)" class="key keypos-26">
<rect rx="4" ry="4" x="-38" y="-38" width="77" height="77" class="key"/>
<text x="0" y="0" class="key tap">F9</text>
</g>
<g transform="translate(280, 200)" class="key keypos-27">
<rect rx="4" ry="4" x="-38" y="-38" width="77" height="77" class="key"/>
<text x="0" y="0" class="key tap">F8</text>
</g>
<g transform="translate(360, 210)" class="key keypos-28">
<rect rx="4" ry="4" x="-38" y="-38" width="77" height="77" class="key"/>
<text x="0" y="0" class="key tap">F7</text>
</g>
<g transform="translate(440, 220)" class="key keypos-29">
<rect rx="4" ry="4" x="-38" y="-38" width="77" height="77" class="key"/>
<text x="0" y="0" class="key tap">F12</text>
</g>
<g transform="translate(760, 220)" class="key keypos-30">
<rect rx="4" ry="4" x="-38" y="-38" width="77" height="77" class="key"/>
</g>
<g transform="translate(840, 210)" class="key keypos-31">
<rect rx="4" ry="4" x="-38" y="-38" width="77" height="77" class="key"/>
</g>
<g transform="translate(920, 200)" class="key keypos-32">
<rect rx="4" ry="4" x="-38" y="-38" width="77" height="77" class="key"/>
</g>
<g transform="translate(1000, 210)" class="key keypos-33">
<rect rx="4" ry="4" x="-38" y="-38" width="77" height="77" class="key"/>
</g>
<g transform="translate(1080, 230)" class="key held keypos-34">
<rect rx="4" ry="4" x="-38" y="-38" width="77" height="77" class="key held"/>
</g>
<g transform="translate(1160, 230)" class="key keypos-35">
<rect rx="4" ry="4" x="-38" y="-38" width="77" height="77" class="key"/>
</g>
<g transform="translate(320, 293)" class="key keypos-36">
<rect rx="4" ry="4" x="-38" y="-38" width="77" height="77" class="key"/>
</g>
<g transform="translate(408, 304) rotate(15.0)" class="key trans keypos-37">
<rect rx="4" ry="4" x="-38" y="-38" width="77" height="77" class="key trans"/>
<text x="0" y="0" class="key trans tap">▽</text>
</g>
<g transform="translate(502, 320) rotate(30.0)" class="key trans keypos-38">
<rect rx="4" ry="4" x="-38" y="-58" width="77" height="117" class="key trans"/>
<text x="0" y="0" class="key trans tap">▽</text>
</g>
<g transform="translate(698, 320) rotate(-30.0)" class="key trans keypos-39">
<rect rx="4" ry="4" x="-38" y="-58" width="77" height="117" class="key trans"/>
<text x="0" y="0" class="key trans tap">▽</text>
</g>
<g transform="translate(792, 304) rotate(-15.0)" class="key held keypos-40">
<rect rx="4" ry="4" x="-38" y="-38" width="77" height="77" class="key held"/>
</g>
<g transform="translate(880, 293)" class="key keypos-41">
<rect rx="4" ry="4" x="-38" y="-38" width="77" height="77" class="key"/>
</g>
<g class="combo combopos-0">
<rect rx="4" ry="4" x="142" y="42" width="36" height="36" class="combo"/>
<text x="160" y="60" class="combo tap">TAB</text>
</g>
<g class="combo combopos-1">
<path d="M600,320 l-72,0" class="combo"/>
<path d="M600,320 l72,0" class="combo"/>
<rect rx="4" ry="4" x="582" y="302" width="36" height="36" class="combo"/>
<text x="600" y="320" class="combo tap">DEL</text>
</g>
<g class="combo combopos-2">
<rect rx="4" ry="4" x="142" y="202" width="36" height="36" class="combo"/>
<text x="160" y="220" class="combo tap">LCTRL</text>
<text x="160" y="234" class="combo hold"><tspan style="font-size: 83%">sticky</tspan></text>
</g>
<g class="combo combopos-3">
<rect rx="4" ry="4" x="1022" y="202" width="36" height="36" class="combo"/>
<text x="1040" y="220" class="combo tap">ENTER</text>
</g>
<g class="combo combopos-4">
<rect rx="4" ry="4" x="302" y="187" width="36" height="36" class="combo"/>
<text x="320" y="205" class="combo tap">LGUI</text>
<text x="320" y="219" class="combo hold"><tspan style="font-size: 83%">sticky</tspan></text>
</g>
<g class="combo combopos-5">
<rect rx="4" ry="4" x="862" y="187" width="36" height="36" class="combo"/>
<text x="880" y="205" class="combo tap">RALT</text>
<text x="880" y="219" class="combo hold"><tspan style="font-size: 83%">sticky</tspan></text>
</g>
<g class="combo combopos-6">
<rect rx="4" ry="4" x="1022" y="42" width="36" height="36" class="combo"/>
<text x="1040" y="60" class="combo tap">BSPC</text>
</g>
</g>
</g>
</svg>
