<svg width="924" height="993" viewBox="0 0 924 993" class="keymap" xmlns="http://www.w3.org/2000/svg" xmlns:xlink="http://www.w3.org/1999/xlink">
<defs>/* start glyphs */
<svg id="mdi:apple-keyboard-command">
<svg xmlns="http://www.w3.org/2000/svg" id="mdi-apple-keyboard-command" viewBox="0 0 24 24"><path d="M6,2A4,4 0 0,1 10,6V8H14V6A4,4 0 0,1 18,2A4,4 0 0,1 22,6A4,4 0 0,1 18,10H16V14H18A4,4 0 0,1 22,18A4,4 0 0,1 18,22A4,4 0 0,1 14,18V16H10V18A4,4 0 0,1 6,22A4,4 0 0,1 2,18A4,4 0 0,1 6,14H8V10H6A4,4 0 0,1 2,6A4,4 0 0,1 6,2M16,18A2,2 0 0,0 18,20A2,2 0 0,0 20,18A2,2 0 0,0 18,16H16V18M14,10H10V14H14V10M6,16A2,2 0 0,0 4,18A2,2 0 0,0 6,20A2,2 0 0,0 8,18V16H6M8,6A2,2 0 0,0 6,4A2,2 0 0,0 4,6A2,2 0 0,0 6,8H8V6M18,8A2,2 0 0,0 20,6A2,2 0 0,0 18,4A2,2 0 0,0 16,6V8H18Z" /></svg>
</svg>
<svg id="mdi:apple-keyboard-control">
<svg xmlns="http://www.w3.org/2000/svg" id="mdi-apple-keyboard-control" viewBox="0 0 24 24"><path d="M19.78,11.78L18.36,13.19L12,6.83L5.64,13.19L4.22,11.78L12,4L19.78,11.78Z" /></svg>
</svg>
<svg id="mdi:apple-keyboard-option">
<svg xmlns="http://www.w3.org/2000/svg" id="mdi-apple-keyboard-option" viewBox="0 0 24 24"><path d="M3,4H9.11L16.15,18H21V20H14.88L7.84,6H3V4M14,4H21V6H14V4Z" /></svg>
</svg>
<svg id="mdi:apple-keyboard-shift">
<svg xmlns="http://www.w3.org/2000/svg" id="mdi-apple-keyboard-shift" viewBox="0 0 24 24"><path d="M15,18V12H17.17L12,6.83L6.83,12H9V18H15M12,4L22,14H17V20H7V14H2L12,4Z" /></svg>
</svg>
<svg id="mdi:arrow-down-bold">
<svg xmlns="http://www.w3.org/2000/svg" id="mdi-arrow-down-bold" viewBox="0 0 24 24"><path d="M9,4H15V12H19.84L12,19.84L4.16,12H9V4Z" /></svg>
</svg>
<svg id="mdi:arrow-left-bold">
<svg xmlns="http://www.w3.org/2000/svg" id="mdi-arrow-left-bold" viewBox="0 0 24 24"><path d="M20,9V15H12V19.84L4.16,12L12,4.16V9H20Z" /></svg>
</svg>
<svg id="mdi:arrow-right-bold">
<svg xmlns="http://www.w3.org/2000/svg" id="mdi-arrow-right-bold" viewBox="0 0 24 24"><path d="M4,15V9H12V4.16L19.84,12L12,19.84V15H4Z" /></svg>
</svg>
<svg id="mdi:arrow-up-bold">
<svg xmlns="http://www.w3.org/2000/svg" id="mdi-arrow-up-bold" viewBox="0 0 24 24"><path d="M15,20H9V12H4.16L12,4.16L19.84,12H15V20Z" /></svg>
</svg>
<svg id="mdi:backspace">
<svg xmlns="http://www.w3.org/2000/svg" id="mdi-backspace" viewBox="0 0 24 24"><path d="M22,3H7C6.31,3 5.77,3.35 5.41,3.88L0,12L5.41,20.11C5.77,20.64 6.31,21 7,21H22A2,2 0 0,0 24,19V5A2,2 0 0,0 22,3M19,15.59L17.59,17L14,13.41L10.41,17L9,15.59L12.59,12L9,8.41L10.41,7L14,10.59L17.59,7L19,8.41L15.41,12" /></svg>
</svg>
<svg id="mdi:bluetooth-connect">
<svg xmlns="http://www.w3.org/2000/svg" id="mdi-bluetooth-connect" viewBox="0 0 24 24"><path d="M19,10L17,12L19,14L21,12M14.88,16.29L13,18.17V14.41M13,5.83L14.88,7.71L13,9.58M17.71,7.71L12,2H11V9.58L6.41,5L5,6.41L10.59,12L5,17.58L6.41,19L11,14.41V22H12L17.71,16.29L13.41,12M7,12L5,10L3,12L5,14L7,12Z" /></svg>
</svg>
<svg id="mdi:keyboard-esc">
<svg xmlns="http://www.w3.org/2000/svg" id="mdi-keyboard-esc" viewBox="0 0 24 24"><path d="M1 7H7V9H3V11H7V13H3V15H7V17H1V7M11 7H15V9H11V11H13C14.11 11 15 11.9 15 13V15C15 16.11 14.11 17 13 17H9V15H13V13H11C9.9 13 9 12.11 9 11V9C9 7.9 9.9 7 11 7M19 7H21C22.11 7 23 7.9 23 9V10H21V9H19V15H21V14H23V15C23 16.11 22.11 17 21 17H19C17.9 17 17 16.11 17 15V9C17 7.9 17.9 7 19 7Z" /></svg>
</svg>
<svg id="mdi:keyboard-space">
<svg xmlns="http://www.w3.org/2000/svg" id="mdi-keyboard-space" viewBox="0 0 24 24"><path d="M3 15H5V19H19V15H21V19C21 20.1 20.1 21 19 21H5C3.9 21 3 20.1 3 19V15Z" /></svg>
</svg>
<svg id="mdi:keyboard-tab">
<svg xmlns="http://www.w3.org/2000/svg" id="mdi-keyboard-tab" viewBox="0 0 24 24"><path d="M20,18H22V6H20M11.59,7.41L15.17,11H1V13H15.17L11.59,16.58L13,18L19,12L13,6L11.59,7.41Z" /></svg>
</svg>
<svg id="mdi:transfer">
<svg xmlns="http://www.w3.org/2000/svg" id="mdi-transfer" viewBox="0 0 24 24"><path d="M8 4A2 2 0 0 0 6 6V10H8V6H16V9H13.5L17 12.5L20.5 9H18V6A2 2 0 0 0 16 4H8M3 12V14H11V12H3M3 15V17H11V15H3M13 15V17H21V15H13M3 18V20H11V18H3M13 18V20H21V18H13Z" /></svg>
</svg>
</defs>/* end glyphs */
<style>/* inherit to force styles through use tags */
svg path {
    fill: inherit;
}

/* font and background color specifications */
svg.keymap {

    --logo-path: none;
    --logo-size: 12%;
    --logo-position: 49.5% 5%;

    /* === define colours === */

    /* from https://coolors.co/palettes/popular/6%20colors */

    --aspar: #679436ff;
    --alaba: #f3f1e9ff;
    --lionn: #c0a287ff;
    --cerul: #3c7a89ff;
    --charc: #2e4756ff;
    --gunme: #16262eff;
    --eggsh: #f4f1deff;
    --sunst: #f5d6a3ff;
    --chrcl: #2e4756ff;
    --blkbn: #2f0601ff;
    --mgnta: #d14081ff;
    --thstl: #dcbdcfff;

    /* flipper */
    --color-01: var(--alaba);
    --color-02: var(--lionn);
    --color-03: var(--aspar);
    --color-04: var(--cerul);
    --color-05: var(--charc);
    --color-06: var(--sunst);
    --color-07: var(--thstl);

    /* === apply colours to keys === */

    /* direct colour assignments */
    --color--bg: transparent;
    --color--none--bg: transparent;
    --color--key--text--shifted: transparent;

    --color--key--bg: var(--color-01);
    --color--key--border: var(--color-01);
    --color--combo--bg: var(--color-02);
    --color--text: var(--color-03);
    --color--layer--text: var(--color-04);
    --color--combo--text--tap: var(--color-05);
    --color--trans--bg: var(--color-06);
    --color--key--bg--held: var(--color-07);

    /* end of direct colour assignments */

    --color--key--text--tap: var(--color--text);
    --color--key--text--hold: var(--color--text);

    --color--combo--border: var(--color--combo--bg);
    --color--combo--dendron: var(--color--combo--border);
    --color--combo--text--shifted: var(--color--combo--bg);
    --color--combo--text--hold: var(--color--combo--text--tap);

    --color--trans--border: var(--color--trans--bg);
    --color--trans--text--tap: var(--color--text);
    --color--trans--text--shifted: var(--color--trans--text--tap);
    --color--trans--text--hold: var(--color--trans--text--tap);

    --color--none--border: var(--color--none--bg);
    --color--none--text--tap: var(--color--none--bg);
    --color--none--text--shifted: var(--color--none--bg);
    --color--none--text--hold: var(--color--none--bg);
  
    font-family: Ubuntu Mono, Inconsolata, Consolas, Liberation Mono, Menlo, monospace;
    font-size: 18px;
    font-kerning: normal;
    text-rendering: optimizeLegibility;
    fill: var(--color--text);
    background-color: var(--color--bg);
    background-image: var(--logo-path);
    background-repeat: no-repeat;
    background-position: var(--logo-position);
    background-size: var(--logo-size) auto;
}

rect,
path {
  shape-rendering: geometricPrecision;
}

text {
    text-anchor: middle;
    dominant-baseline: middle;
    line-height: 1;
}

/* Layer labels */

text.label {
    font-weight: bold;
    text-anchor: start;
    paint-order: stroke;
    fill: var(--color--layer--text);
    dominant-baseline: text-before-edge;
}

/* keys */

rect.key,
rect.combo {
    fill: var(--color--key--bg);
    stroke: var(--color--key--border);
}
.tap {
    fill: var(--color--key--text--tap);
}
.shifted,
.hold {
    font-size: 18px;
    text-anchor: middle;
}
.shifted {
    dominant-baseline: hanging;
    fill: var(--color--key--text--shifted);
    translate: -25px 2px;
}
.hold {
    dominant-baseline: ideographic;
    fill: var(--color--key--text--hold);
}

/* color accent for held keys */
rect.held, rect.combo.held {
    fill: var(--color--key--bg--held);
    opacity: 0.45
}

/* combos     */

.combo {
    --color--key--bg: var(--color--combo--bg);
    --color--key--border: var(--color--combo--border);
    --color--key--text--tap: var(--color--combo--text--tap);
    --color--key--text--shifted: var(--color--combo--text--shifted);
    --color--key--text--hold: var(--color--combo--text--hold);
}
rect.combo {
    stroke-width: 0;
}
path.combo {
    stroke-width: 1;
    stroke: var(--color--combo--dendron);
    stroke-dasharray: 2, 2;
    fill: none;
}
.combo.tap {
    font-size: 12px;
}
.combo.shifted {
    font-size: 13px;
    translate: -9px -2px;
}
.combo.hold {
    font-size: 15px;
    /* translate: 2px 0px; */
}

/* trans and none     */

.trans,
.none {
  opacity: 0.8;
}
.trans {
    --color--key--bg: var(--color--trans--bg);
    --color--key--border: var(--color--trans--border);
    --color--key--text--tap: var(--color--trans--text--tap);
    --color--key--text--shifted: var(--color--trans--text--shifted);
    --color--key--text--hold: var(--color--trans--text--hold);
}
.none {
    --color--key--bg: var(--color--none--bg);
    --color--key--border: var(--color--none--border);
    --color--key--text--tap: var(--color--none--text--tap);
    --color--key--text--shifted: var(--color--none--text--shifted);
    --color--key--text--hold: var(--color--none--text--hold);
}
</style>
<g transform="translate(27, 0)" class="layer-default">
<text x="0" y="18" class="label">default</text>
<g transform="translate(0, 35)">
<g transform="translate(29, 51)" class="key keypos-0">
<rect rx="4" ry="4" x="-27" y="-27" width="54" height="54" class="key"/>
<use href="#mdi:keyboard-tab" xlink:href="#mdi:keyboard-tab" x="-9" y="-9" height="18" width="18.0" class="key tap glyph mdi:keyboard-tab"/>
</g>
<g transform="translate(87, 51)" class="key keypos-1">
<rect rx="4" ry="4" x="-27" y="-27" width="54" height="54" class="key"/>
<text x="0" y="0" class="key tap">Q</text>
</g>
<g transform="translate(145, 36)" class="key keypos-2">
<rect rx="4" ry="4" x="-27" y="-27" width="54" height="54" class="key"/>
<text x="0" y="0" class="key tap">W</text>
</g>
<g transform="translate(203, 29)" class="key keypos-3">
<rect rx="4" ry="4" x="-27" y="-27" width="54" height="54" class="key"/>
<text x="0" y="0" class="key tap">E</text>
</g>
<g transform="translate(261, 36)" class="key keypos-4">
<rect rx="4" ry="4" x="-27" y="-27" width="54" height="54" class="key"/>
<text x="0" y="0" class="key tap">R</text>
</g>
<g transform="translate(319, 44)" class="key keypos-5">
<rect rx="4" ry="4" x="-27" y="-27" width="54" height="54" class="key"/>
<text x="0" y="0" class="key tap">T</text>
</g>
<g transform="translate(551, 44)" class="key keypos-6">
<rect rx="4" ry="4" x="-27" y="-27" width="54" height="54" class="key"/>
<text x="0" y="0" class="key tap">Y</text>
</g>
<g transform="translate(609, 36)" class="key keypos-7">
<rect rx="4" ry="4" x="-27" y="-27" width="54" height="54" class="key"/>
<text x="0" y="0" class="key tap">U</text>
</g>
<g transform="translate(667, 29)" class="key keypos-8">
<rect rx="4" ry="4" x="-27" y="-27" width="54" height="54" class="key"/>
<text x="0" y="0" class="key tap">I</text>
</g>
<g transform="translate(725, 36)" class="key keypos-9">
<rect rx="4" ry="4" x="-27" y="-27" width="54" height="54" class="key"/>
<text x="0" y="0" class="key tap">O</text>
</g>
<g transform="translate(783, 51)" class="key keypos-10">
<rect rx="4" ry="4" x="-27" y="-27" width="54" height="54" class="key"/>
<text x="0" y="0" class="key tap">P</text>
</g>
<g transform="translate(841, 51)" class="key backspace keypos-11">
<rect rx="4" ry="4" x="-27" y="-27" width="54" height="54" class="key backspace"/>
<use href="#mdi:backspace" xlink:href="#mdi:backspace" x="-9" y="-9" height="18" width="18.0" class="key backspace tap glyph mdi:backspace"/>
</g>
<g transform="translate(29, 109)" class="key keypos-12">
<rect rx="4" ry="4" x="-27" y="-27" width="54" height="54" class="key"/>
<use href="#mdi:apple-keyboard-control" xlink:href="#mdi:apple-keyboard-control" x="-9" y="-9" height="18" width="18.0" class="key tap glyph mdi:apple-keyboard-control"/>
</g>
<g transform="translate(87, 109)" class="key keypos-13">
<rect rx="4" ry="4" x="-27" y="-27" width="54" height="54" class="key"/>
<text x="0" y="0" class="key tap">A</text>
</g>
<g transform="translate(145, 94)" class="key keypos-14">
<rect rx="4" ry="4" x="-27" y="-27" width="54" height="54" class="key"/>
<text x="0" y="0" class="key tap">S</text>
</g>
<g transform="translate(203, 87)" class="key keypos-15">
<rect rx="4" ry="4" x="-27" y="-27" width="54" height="54" class="key"/>
<text x="0" y="0" class="key tap">D</text>
</g>
<g transform="translate(261, 94)" class="key keypos-16">
<rect rx="4" ry="4" x="-27" y="-27" width="54" height="54" class="key"/>
<text x="0" y="0" class="key tap">F</text>
</g>
<g transform="translate(319, 102)" class="key keypos-17">
<rect rx="4" ry="4" x="-27" y="-27" width="54" height="54" class="key"/>
<text x="0" y="0" class="key tap">G</text>
</g>
<g transform="translate(551, 102)" class="key keypos-18">
<rect rx="4" ry="4" x="-27" y="-27" width="54" height="54" class="key"/>
<text x="0" y="0" class="key tap">H</text>
</g>
<g transform="translate(609, 94)" class="key keypos-19">
<rect rx="4" ry="4" x="-27" y="-27" width="54" height="54" class="key"/>
<text x="0" y="0" class="key tap">J</text>
</g>
<g transform="translate(667, 87)" class="key keypos-20">
<rect rx="4" ry="4" x="-27" y="-27" width="54" height="54" class="key"/>
<text x="0" y="0" class="key tap">K</text>
</g>
<g transform="translate(725, 94)" class="key keypos-21">
<rect rx="4" ry="4" x="-27" y="-27" width="54" height="54" class="key"/>
<text x="0" y="0" class="key tap">L</text>
</g>
<g transform="translate(783, 109)" class="key keypos-22">
<rect rx="4" ry="4" x="-27" y="-27" width="54" height="54" class="key"/>
<text x="0" y="0" class="key tap">;</text>
<text x="0" y="-23" class="key shifted">:</text>
</g>
<g transform="translate(841, 109)" class="key keypos-23">
<rect rx="4" ry="4" x="-27" y="-27" width="54" height="54" class="key"/>
<text x="0" y="0" class="key tap">&#x27;</text>
<text x="0" y="-23" class="key shifted">&quot;</text>
</g>
<g transform="translate(29, 167)" class="key keypos-24">
<rect rx="4" ry="4" x="-27" y="-27" width="54" height="54" class="key"/>
<use href="#mdi:apple-keyboard-shift" xlink:href="#mdi:apple-keyboard-shift" x="-9" y="-9" height="18" width="18.0" class="key tap glyph mdi:apple-keyboard-shift"/>
</g>
<g transform="translate(87, 167)" class="key keypos-25">
<rect rx="4" ry="4" x="-27" y="-27" width="54" height="54" class="key"/>
<text x="0" y="0" class="key tap">Z</text>
</g>
<g transform="translate(145, 152)" class="key keypos-26">
<rect rx="4" ry="4" x="-27" y="-27" width="54" height="54" class="key"/>
<text x="0" y="0" class="key tap">X</text>
</g>
<g transform="translate(203, 145)" class="key keypos-27">
<rect rx="4" ry="4" x="-27" y="-27" width="54" height="54" class="key"/>
<text x="0" y="0" class="key tap">C</text>
</g>
<g transform="translate(261, 152)" class="key keypos-28">
<rect rx="4" ry="4" x="-27" y="-27" width="54" height="54" class="key"/>
<text x="0" y="0" class="key tap">V</text>
</g>
<g transform="translate(319, 160)" class="key keypos-29">
<rect rx="4" ry="4" x="-27" y="-27" width="54" height="54" class="key"/>
<text x="0" y="0" class="key tap">B</text>
</g>
<g transform="translate(551, 160)" class="key keypos-30">
<rect rx="4" ry="4" x="-27" y="-27" width="54" height="54" class="key"/>
<text x="0" y="0" class="key tap">N</text>
</g>
<g transform="translate(609, 152)" class="key keypos-31">
<rect rx="4" ry="4" x="-27" y="-27" width="54" height="54" class="key"/>
<text x="0" y="0" class="key tap">M</text>
</g>
<g transform="translate(667, 145)" class="key keypos-32">
<rect rx="4" ry="4" x="-27" y="-27" width="54" height="54" class="key"/>
<text x="0" y="0" class="key tap">,</text>
<text x="0" y="-23" class="key shifted">&lt;</text>
</g>
<g transform="translate(725, 152)" class="key keypos-33">
<rect rx="4" ry="4" x="-27" y="-27" width="54" height="54" class="key"/>
<text x="0" y="0" class="key tap">.</text>
<text x="0" y="-23" class="key shifted">&gt;</text>
</g>
<g transform="translate(783, 167)" class="key keypos-34">
<rect rx="4" ry="4" x="-27" y="-27" width="54" height="54" class="key"/>
<text x="0" y="0" class="key tap">/</text>
<text x="0" y="-23" class="key shifted">?</text>
</g>
<g transform="translate(841, 167)" class="key keypos-35">
<rect rx="4" ry="4" x="-27" y="-27" width="54" height="54" class="key"/>
<use href="#mdi:keyboard-esc" xlink:href="#mdi:keyboard-esc" x="-9" y="-9" height="18" width="18.0" class="key tap glyph mdi:keyboard-esc"/>
</g>
<g transform="translate(232, 212)" class="key keypos-36">
<rect rx="4" ry="4" x="-27" y="-27" width="54" height="54" class="key"/>
<use href="#mdi:apple-keyboard-command" xlink:href="#mdi:apple-keyboard-command" x="-9" y="-9" height="18" width="18.0" class="key tap glyph mdi:apple-keyboard-command"/>
</g>
<g transform="translate(296, 221) rotate(15.0)" class="key keypos-37">
<rect rx="4" ry="4" x="-27" y="-27" width="54" height="54" class="key"/>
<text x="0" y="0" class="key tap">lower</text>
</g>
<g transform="translate(364, 232) rotate(30.0)" class="key keypos-38">
<rect rx="4" ry="4" x="-27" y="-42" width="54" height="83" class="key"/>
<use href="#mdi:keyboard-space" xlink:href="#mdi:keyboard-space" x="-9" y="-9" height="18" width="18.0" class="key tap glyph mdi:keyboard-space"/>
</g>
<g transform="translate(506, 232) rotate(-30.0)" class="key keypos-39">
<rect rx="4" ry="4" x="-27" y="-42" width="54" height="83" class="key"/>
<text x="0" y="0" class="key tap">RET</text>
</g>
<g transform="translate(574, 221) rotate(-15.0)" class="key keypos-40">
<rect rx="4" ry="4" x="-27" y="-27" width="54" height="54" class="key"/>
<text x="0" y="0" class="key tap">raise</text>
</g>
<g transform="translate(638, 212)" class="key keypos-41">
<rect rx="4" ry="4" x="-27" y="-27" width="54" height="54" class="key"/>
<use href="#mdi:apple-keyboard-option" xlink:href="#mdi:apple-keyboard-option" x="-9" y="-9" height="18" width="18.0" class="key tap glyph mdi:apple-keyboard-option"/>
</g>
</g>
</g>
<g transform="translate(27, 319)" class="layer-lower">
<text x="0" y="18" class="label">lower</text>
<g transform="translate(0, 35)">
<g transform="translate(29, 51)" class="key keypos-0">
<rect rx="4" ry="4" x="-27" y="-27" width="54" height="54" class="key"/>
<use href="#mdi:keyboard-tab" xlink:href="#mdi:keyboard-tab" x="-9" y="-9" height="18" width="18.0" class="key tap glyph mdi:keyboard-tab"/>
</g>
<g transform="translate(87, 51)" class="key keypos-1">
<rect rx="4" ry="4" x="-27" y="-27" width="54" height="54" class="key"/>
<text x="0" y="0" class="key tap">1</text>
<text x="0" y="-23" class="key shifted">!</text>
</g>
<g transform="translate(145, 36)" class="key keypos-2">
<rect rx="4" ry="4" x="-27" y="-27" width="54" height="54" class="key"/>
<text x="0" y="0" class="key tap">2</text>
<text x="0" y="-23" class="key shifted">@</text>
</g>
<g transform="translate(203, 29)" class="key keypos-3">
<rect rx="4" ry="4" x="-27" y="-27" width="54" height="54" class="key"/>
<text x="0" y="0" class="key tap">3</text>
<text x="0" y="-23" class="key shifted">#</text>
</g>
<g transform="translate(261, 36)" class="key keypos-4">
<rect rx="4" ry="4" x="-27" y="-27" width="54" height="54" class="key"/>
<text x="0" y="0" class="key tap">4</text>
<text x="0" y="-23" class="key shifted">$</text>
</g>
<g transform="translate(319, 44)" class="key keypos-5">
<rect rx="4" ry="4" x="-27" y="-27" width="54" height="54" class="key"/>
<text x="0" y="0" class="key tap">5</text>
<text x="0" y="-23" class="key shifted">%</text>
</g>
<g transform="translate(551, 44)" class="key keypos-6">
<rect rx="4" ry="4" x="-27" y="-27" width="54" height="54" class="key"/>
<text x="0" y="0" class="key tap">6</text>
<text x="0" y="-23" class="key shifted">^</text>
</g>
<g transform="translate(609, 36)" class="key keypos-7">
<rect rx="4" ry="4" x="-27" y="-27" width="54" height="54" class="key"/>
<text x="0" y="0" class="key tap">7</text>
<text x="0" y="-23" class="key shifted">&amp;</text>
</g>
<g transform="translate(667, 29)" class="key keypos-8">
<rect rx="4" ry="4" x="-27" y="-27" width="54" height="54" class="key"/>
<text x="0" y="0" class="key tap">8</text>
<text x="0" y="-23" class="key shifted">*</text>
</g>
<g transform="translate(725, 36)" class="key keypos-9">
<rect rx="4" ry="4" x="-27" y="-27" width="54" height="54" class="key"/>
<text x="0" y="0" class="key tap">9</text>
<text x="0" y="-23" class="key shifted">(</text>
</g>
<g transform="translate(783, 51)" class="key keypos-10">
<rect rx="4" ry="4" x="-27" y="-27" width="54" height="54" class="key"/>
<text x="0" y="0" class="key tap">0</text>
<text x="0" y="-23" class="key shifted">)</text>
</g>
<g transform="translate(841, 51)" class="key backspace keypos-11">
<rect rx="4" ry="4" x="-27" y="-27" width="54" height="54" class="key backspace"/>
<use href="#mdi:backspace" xlink:href="#mdi:backspace" x="-9" y="-9" height="18" width="18.0" class="key backspace tap glyph mdi:backspace"/>
</g>
<g transform="translate(29, 109)" class="key keypos-12">
<rect rx="4" ry="4" x="-27" y="-27" width="54" height="54" class="key"/>
<text x="0" y="0" class="key tap">
<tspan x="0" dy="-0.5em">BT</tspan><tspan x="0" dy="1.0em">CLR</tspan>
</text>
</g>
<g transform="translate(87, 109)" class="key keypos-13">
<rect rx="4" ry="4" x="-27" y="-27" width="54" height="54" class="key"/>
<text x="0" y="23" class="key hold">1</text>
<use href="#mdi:bluetooth-connect" xlink:href="#mdi:bluetooth-connect" x="-9" y="-23" height="18" width="18.0" class="key shifted glyph mdi:bluetooth-connect"/>
</g>
<g transform="translate(145, 94)" class="key keypos-14">
<rect rx="4" ry="4" x="-27" y="-27" width="54" height="54" class="key"/>
<text x="0" y="23" class="key hold">2</text>
<use href="#mdi:bluetooth-connect" xlink:href="#mdi:bluetooth-connect" x="-9" y="-23" height="18" width="18.0" class="key shifted glyph mdi:bluetooth-connect"/>
</g>
<g transform="translate(203, 87)" class="key keypos-15">
<rect rx="4" ry="4" x="-27" y="-27" width="54" height="54" class="key"/>
<text x="0" y="23" class="key hold">3</text>
<use href="#mdi:bluetooth-connect" xlink:href="#mdi:bluetooth-connect" x="-9" y="-23" height="18" width="18.0" class="key shifted glyph mdi:bluetooth-connect"/>
</g>
<g transform="translate(261, 94)" class="key keypos-16">
<rect rx="4" ry="4" x="-27" y="-27" width="54" height="54" class="key"/>
<text x="0" y="23" class="key hold">4</text>
<use href="#mdi:bluetooth-connect" xlink:href="#mdi:bluetooth-connect" x="-9" y="-23" height="18" width="18.0" class="key shifted glyph mdi:bluetooth-connect"/>
</g>
<g transform="translate(319, 102)" class="key keypos-17">
<rect rx="4" ry="4" x="-27" y="-27" width="54" height="54" class="key"/>
<text x="0" y="23" class="key hold">5</text>
<use href="#mdi:bluetooth-connect" xlink:href="#mdi:bluetooth-connect" x="-9" y="-23" height="18" width="18.0" class="key shifted glyph mdi:bluetooth-connect"/>
</g>
<g transform="translate(551, 102)" class="key keypos-18">
<rect rx="4" ry="4" x="-27" y="-27" width="54" height="54" class="key"/>
<use href="#mdi:arrow-left-bold" xlink:href="#mdi:arrow-left-bold" x="-9" y="-9" height="18" width="18.0" class="key tap glyph mdi:arrow-left-bold"/>
</g>
<g transform="translate(609, 94)" class="key keypos-19">
<rect rx="4" ry="4" x="-27" y="-27" width="54" height="54" class="key"/>
<use href="#mdi:arrow-down-bold" xlink:href="#mdi:arrow-down-bold" x="-9" y="-9" height="18" width="18.0" class="key tap glyph mdi:arrow-down-bold"/>
</g>
<g transform="translate(667, 87)" class="key keypos-20">
<rect rx="4" ry="4" x="-27" y="-27" width="54" height="54" class="key"/>
<use href="#mdi:arrow-up-bold" xlink:href="#mdi:arrow-up-bold" x="-9" y="-9" height="18" width="18.0" class="key tap glyph mdi:arrow-up-bold"/>
</g>
<g transform="translate(725, 94)" class="key keypos-21">
<rect rx="4" ry="4" x="-27" y="-27" width="54" height="54" class="key"/>
<use href="#mdi:arrow-right-bold" xlink:href="#mdi:arrow-right-bold" x="-9" y="-9" height="18" width="18.0" class="key tap glyph mdi:arrow-right-bold"/>
</g>
<g transform="translate(783, 109)" class="key trans keypos-22">
<rect rx="4" ry="4" x="-27" y="-27" width="54" height="54" class="key trans"/>
<use href="#mdi:transfer" xlink:href="#mdi:transfer" x="-9" y="-9" height="18" width="18.0" class="key trans tap glyph mdi:transfer"/>
</g>
<g transform="translate(841, 109)" class="key trans keypos-23">
<rect rx="4" ry="4" x="-27" y="-27" width="54" height="54" class="key trans"/>
<use href="#mdi:transfer" xlink:href="#mdi:transfer" x="-9" y="-9" height="18" width="18.0" class="key trans tap glyph mdi:transfer"/>
</g>
<g transform="translate(29, 167)" class="key keypos-24">
<rect rx="4" ry="4" x="-27" y="-27" width="54" height="54" class="key"/>
<use href="#mdi:apple-keyboard-shift" xlink:href="#mdi:apple-keyboard-shift" x="-9" y="-9" height="18" width="18.0" class="key tap glyph mdi:apple-keyboard-shift"/>
</g>
<g transform="translate(87, 167)" class="key trans keypos-25">
<rect rx="4" ry="4" x="-27" y="-27" width="54" height="54" class="key trans"/>
<use href="#mdi:transfer" xlink:href="#mdi:transfer" x="-9" y="-9" height="18" width="18.0" class="key trans tap glyph mdi:transfer"/>
</g>
<g transform="translate(145, 152)" class="key trans keypos-26">
<rect rx="4" ry="4" x="-27" y="-27" width="54" height="54" class="key trans"/>
<use href="#mdi:transfer" xlink:href="#mdi:transfer" x="-9" y="-9" height="18" width="18.0" class="key trans tap glyph mdi:transfer"/>
</g>
<g transform="translate(203, 145)" class="key trans keypos-27">
<rect rx="4" ry="4" x="-27" y="-27" width="54" height="54" class="key trans"/>
<use href="#mdi:transfer" xlink:href="#mdi:transfer" x="-9" y="-9" height="18" width="18.0" class="key trans tap glyph mdi:transfer"/>
</g>
<g transform="translate(261, 152)" class="key trans keypos-28">
<rect rx="4" ry="4" x="-27" y="-27" width="54" height="54" class="key trans"/>
<use href="#mdi:transfer" xlink:href="#mdi:transfer" x="-9" y="-9" height="18" width="18.0" class="key trans tap glyph mdi:transfer"/>
</g>
<g transform="translate(319, 160)" class="key trans keypos-29">
<rect rx="4" ry="4" x="-27" y="-27" width="54" height="54" class="key trans"/>
<use href="#mdi:transfer" xlink:href="#mdi:transfer" x="-9" y="-9" height="18" width="18.0" class="key trans tap glyph mdi:transfer"/>
</g>
<g transform="translate(551, 160)" class="key trans keypos-30">
<rect rx="4" ry="4" x="-27" y="-27" width="54" height="54" class="key trans"/>
<use href="#mdi:transfer" xlink:href="#mdi:transfer" x="-9" y="-9" height="18" width="18.0" class="key trans tap glyph mdi:transfer"/>
</g>
<g transform="translate(609, 152)" class="key trans keypos-31">
<rect rx="4" ry="4" x="-27" y="-27" width="54" height="54" class="key trans"/>
<use href="#mdi:transfer" xlink:href="#mdi:transfer" x="-9" y="-9" height="18" width="18.0" class="key trans tap glyph mdi:transfer"/>
</g>
<g transform="translate(667, 145)" class="key trans keypos-32">
<rect rx="4" ry="4" x="-27" y="-27" width="54" height="54" class="key trans"/>
<use href="#mdi:transfer" xlink:href="#mdi:transfer" x="-9" y="-9" height="18" width="18.0" class="key trans tap glyph mdi:transfer"/>
</g>
<g transform="translate(725, 152)" class="key trans keypos-33">
<rect rx="4" ry="4" x="-27" y="-27" width="54" height="54" class="key trans"/>
<use href="#mdi:transfer" xlink:href="#mdi:transfer" x="-9" y="-9" height="18" width="18.0" class="key trans tap glyph mdi:transfer"/>
</g>
<g transform="translate(783, 167)" class="key trans keypos-34">
<rect rx="4" ry="4" x="-27" y="-27" width="54" height="54" class="key trans"/>
<use href="#mdi:transfer" xlink:href="#mdi:transfer" x="-9" y="-9" height="18" width="18.0" class="key trans tap glyph mdi:transfer"/>
</g>
<g transform="translate(841, 167)" class="key trans keypos-35">
<rect rx="4" ry="4" x="-27" y="-27" width="54" height="54" class="key trans"/>
<use href="#mdi:transfer" xlink:href="#mdi:transfer" x="-9" y="-9" height="18" width="18.0" class="key trans tap glyph mdi:transfer"/>
</g>
<g transform="translate(232, 212)" class="key keypos-36">
<rect rx="4" ry="4" x="-27" y="-27" width="54" height="54" class="key"/>
<use href="#mdi:apple-keyboard-command" xlink:href="#mdi:apple-keyboard-command" x="-9" y="-9" height="18" width="18.0" class="key tap glyph mdi:apple-keyboard-command"/>
</g>
<g transform="translate(296, 221) rotate(15.0)" class="key held keypos-37">
<rect rx="4" ry="4" x="-27" y="-27" width="54" height="54" class="key held"/>
</g>
<g transform="translate(364, 232) rotate(30.0)" class="key keypos-38">
<rect rx="4" ry="4" x="-27" y="-42" width="54" height="83" class="key"/>
<use href="#mdi:keyboard-space" xlink:href="#mdi:keyboard-space" x="-9" y="-9" height="18" width="18.0" class="key tap glyph mdi:keyboard-space"/>
</g>
<g transform="translate(506, 232) rotate(-30.0)" class="key keypos-39">
<rect rx="4" ry="4" x="-27" y="-42" width="54" height="83" class="key"/>
<text x="0" y="0" class="key tap">RET</text>
</g>
<g transform="translate(574, 221) rotate(-15.0)" class="key trans keypos-40">
<rect rx="4" ry="4" x="-27" y="-27" width="54" height="54" class="key trans"/>
<use href="#mdi:transfer" xlink:href="#mdi:transfer" x="-9" y="-9" height="18" width="18.0" class="key trans tap glyph mdi:transfer"/>
</g>
<g transform="translate(638, 212)" class="key keypos-41">
<rect rx="4" ry="4" x="-27" y="-27" width="54" height="54" class="key"/>
<use href="#mdi:apple-keyboard-option" xlink:href="#mdi:apple-keyboard-option" x="-9" y="-9" height="18" width="18.0" class="key tap glyph mdi:apple-keyboard-option"/>
</g>
</g>
</g>
<g transform="translate(27, 639)" class="layer-raise">
<text x="0" y="18" class="label">raise</text>
<g transform="translate(0, 35)">
<g transform="translate(29, 51)" class="key keypos-0">
<rect rx="4" ry="4" x="-27" y="-27" width="54" height="54" class="key"/>
<use href="#mdi:keyboard-tab" xlink:href="#mdi:keyboard-tab" x="-9" y="-9" height="18" width="18.0" class="key tap glyph mdi:keyboard-tab"/>
</g>
<g transform="translate(87, 51)" class="key keypos-1">
<rect rx="4" ry="4" x="-27" y="-27" width="54" height="54" class="key"/>
<text x="0" y="0" class="key tap">!</text>
</g>
<g transform="translate(145, 36)" class="key keypos-2">
<rect rx="4" ry="4" x="-27" y="-27" width="54" height="54" class="key"/>
<text x="0" y="0" class="key tap">@</text>
</g>
<g transform="translate(203, 29)" class="key keypos-3">
<rect rx="4" ry="4" x="-27" y="-27" width="54" height="54" class="key"/>
<text x="0" y="0" class="key tap">#</text>
</g>
<g transform="translate(261, 36)" class="key keypos-4">
<rect rx="4" ry="4" x="-27" y="-27" width="54" height="54" class="key"/>
<text x="0" y="0" class="key tap">$</text>
</g>
<g transform="translate(319, 44)" class="key keypos-5">
<rect rx="4" ry="4" x="-27" y="-27" width="54" height="54" class="key"/>
<text x="0" y="0" class="key tap">%</text>
</g>
<g transform="translate(551, 44)" class="key keypos-6">
<rect rx="4" ry="4" x="-27" y="-27" width="54" height="54" class="key"/>
<text x="0" y="0" class="key tap">^</text>
</g>
<g transform="translate(609, 36)" class="key keypos-7">
<rect rx="4" ry="4" x="-27" y="-27" width="54" height="54" class="key"/>
<text x="0" y="0" class="key tap">&amp;</text>
</g>
<g transform="translate(667, 29)" class="key keypos-8">
<rect rx="4" ry="4" x="-27" y="-27" width="54" height="54" class="key"/>
<text x="0" y="0" class="key tap">*</text>
</g>
<g transform="translate(725, 36)" class="key keypos-9">
<rect rx="4" ry="4" x="-27" y="-27" width="54" height="54" class="key"/>
<text x="0" y="0" class="key tap">(</text>
</g>
<g transform="translate(783, 51)" class="key keypos-10">
<rect rx="4" ry="4" x="-27" y="-27" width="54" height="54" class="key"/>
<text x="0" y="0" class="key tap">)</text>
</g>
<g transform="translate(841, 51)" class="key backspace keypos-11">
<rect rx="4" ry="4" x="-27" y="-27" width="54" height="54" class="key backspace"/>
<use href="#mdi:backspace" xlink:href="#mdi:backspace" x="-9" y="-9" height="18" width="18.0" class="key backspace tap glyph mdi:backspace"/>
</g>
<g transform="translate(29, 109)" class="key keypos-12">
<rect rx="4" ry="4" x="-27" y="-27" width="54" height="54" class="key"/>
<use href="#mdi:apple-keyboard-control" xlink:href="#mdi:apple-keyboard-control" x="-9" y="-9" height="18" width="18.0" class="key tap glyph mdi:apple-keyboard-control"/>
</g>
<g transform="translate(87, 109)" class="key trans keypos-13">
<rect rx="4" ry="4" x="-27" y="-27" width="54" height="54" class="key trans"/>
<use href="#mdi:transfer" xlink:href="#mdi:transfer" x="-9" y="-9" height="18" width="18.0" class="key trans tap glyph mdi:transfer"/>
</g>
<g transform="translate(145, 94)" class="key trans keypos-14">
<rect rx="4" ry="4" x="-27" y="-27" width="54" height="54" class="key trans"/>
<use href="#mdi:transfer" xlink:href="#mdi:transfer" x="-9" y="-9" height="18" width="18.0" class="key trans tap glyph mdi:transfer"/>
</g>
<g transform="translate(203, 87)" class="key trans keypos-15">
<rect rx="4" ry="4" x="-27" y="-27" width="54" height="54" class="key trans"/>
<use href="#mdi:transfer" xlink:href="#mdi:transfer" x="-9" y="-9" height="18" width="18.0" class="key trans tap glyph mdi:transfer"/>
</g>
<g transform="translate(261, 94)" class="key trans keypos-16">
<rect rx="4" ry="4" x="-27" y="-27" width="54" height="54" class="key trans"/>
<use href="#mdi:transfer" xlink:href="#mdi:transfer" x="-9" y="-9" height="18" width="18.0" class="key trans tap glyph mdi:transfer"/>
</g>
<g transform="translate(319, 102)" class="key trans keypos-17">
<rect rx="4" ry="4" x="-27" y="-27" width="54" height="54" class="key trans"/>
<use href="#mdi:transfer" xlink:href="#mdi:transfer" x="-9" y="-9" height="18" width="18.0" class="key trans tap glyph mdi:transfer"/>
</g>
<g transform="translate(551, 102)" class="key keypos-18">
<rect rx="4" ry="4" x="-27" y="-27" width="54" height="54" class="key"/>
<text x="0" y="0" class="key tap">-</text>
<text x="0" y="-23" class="key shifted">_</text>
</g>
<g transform="translate(609, 94)" class="key keypos-19">
<rect rx="4" ry="4" x="-27" y="-27" width="54" height="54" class="key"/>
<text x="0" y="0" class="key tap">=</text>
<text x="0" y="-23" class="key shifted">+</text>
</g>
<g transform="translate(667, 87)" class="key keypos-20">
<rect rx="4" ry="4" x="-27" y="-27" width="54" height="54" class="key"/>
<text x="0" y="0" class="key tap">[</text>
<text x="0" y="-23" class="key shifted">{</text>
</g>
<g transform="translate(725, 94)" class="key keypos-21">
<rect rx="4" ry="4" x="-27" y="-27" width="54" height="54" class="key"/>
<text x="0" y="0" class="key tap">]</text>
<text x="0" y="-23" class="key shifted">}</text>
</g>
<g transform="translate(783, 109)" class="key keypos-22">
<rect rx="4" ry="4" x="-27" y="-27" width="54" height="54" class="key"/>
<text x="0" y="0" class="key tap">\</text>
<text x="0" y="-23" class="key shifted">|</text>
</g>
<g transform="translate(841, 109)" class="key keypos-23">
<rect rx="4" ry="4" x="-27" y="-27" width="54" height="54" class="key"/>
<text x="0" y="0" class="key tap">`</text>
<text x="0" y="-23" class="key shifted">~</text>
</g>
<g transform="translate(29, 167)" class="key keypos-24">
<rect rx="4" ry="4" x="-27" y="-27" width="54" height="54" class="key"/>
<use href="#mdi:apple-keyboard-shift" xlink:href="#mdi:apple-keyboard-shift" x="-9" y="-9" height="18" width="18.0" class="key tap glyph mdi:apple-keyboard-shift"/>
</g>
<g transform="translate(87, 167)" class="key trans keypos-25">
<rect rx="4" ry="4" x="-27" y="-27" width="54" height="54" class="key trans"/>
<use href="#mdi:transfer" xlink:href="#mdi:transfer" x="-9" y="-9" height="18" width="18.0" class="key trans tap glyph mdi:transfer"/>
</g>
<g transform="translate(145, 152)" class="key trans keypos-26">
<rect rx="4" ry="4" x="-27" y="-27" width="54" height="54" class="key trans"/>
<use href="#mdi:transfer" xlink:href="#mdi:transfer" x="-9" y="-9" height="18" width="18.0" class="key trans tap glyph mdi:transfer"/>
</g>
<g transform="translate(203, 145)" class="key trans keypos-27">
<rect rx="4" ry="4" x="-27" y="-27" width="54" height="54" class="key trans"/>
<use href="#mdi:transfer" xlink:href="#mdi:transfer" x="-9" y="-9" height="18" width="18.0" class="key trans tap glyph mdi:transfer"/>
</g>
<g transform="translate(261, 152)" class="key trans keypos-28">
<rect rx="4" ry="4" x="-27" y="-27" width="54" height="54" class="key trans"/>
<use href="#mdi:transfer" xlink:href="#mdi:transfer" x="-9" y="-9" height="18" width="18.0" class="key trans tap glyph mdi:transfer"/>
</g>
<g transform="translate(319, 160)" class="key trans keypos-29">
<rect rx="4" ry="4" x="-27" y="-27" width="54" height="54" class="key trans"/>
<use href="#mdi:transfer" xlink:href="#mdi:transfer" x="-9" y="-9" height="18" width="18.0" class="key trans tap glyph mdi:transfer"/>
</g>
<g transform="translate(551, 160)" class="key keypos-30">
<rect rx="4" ry="4" x="-27" y="-27" width="54" height="54" class="key"/>
<text x="0" y="0" class="key tap">_</text>
</g>
<g transform="translate(609, 152)" class="key keypos-31">
<rect rx="4" ry="4" x="-27" y="-27" width="54" height="54" class="key"/>
<text x="0" y="0" class="key tap">+</text>
</g>
<g transform="translate(667, 145)" class="key keypos-32">
<rect rx="4" ry="4" x="-27" y="-27" width="54" height="54" class="key"/>
<text x="0" y="0" class="key tap">{</text>
</g>
<g transform="translate(725, 152)" class="key keypos-33">
<rect rx="4" ry="4" x="-27" y="-27" width="54" height="54" class="key"/>
<text x="0" y="0" class="key tap">}</text>
</g>
<g transform="translate(783, 167)" class="key keypos-34">
<rect rx="4" ry="4" x="-27" y="-27" width="54" height="54" class="key"/>
<text x="0" y="0" class="key tap">|</text>
</g>
<g transform="translate(841, 167)" class="key keypos-35">
<rect rx="4" ry="4" x="-27" y="-27" width="54" height="54" class="key"/>
<text x="0" y="0" class="key tap">~</text>
</g>
<g transform="translate(232, 212)" class="key keypos-36">
<rect rx="4" ry="4" x="-27" y="-27" width="54" height="54" class="key"/>
<use href="#mdi:apple-keyboard-command" xlink:href="#mdi:apple-keyboard-command" x="-9" y="-9" height="18" width="18.0" class="key tap glyph mdi:apple-keyboard-command"/>
</g>
<g transform="translate(296, 221) rotate(15.0)" class="key trans keypos-37">
<rect rx="4" ry="4" x="-27" y="-27" width="54" height="54" class="key trans"/>
<use href="#mdi:transfer" xlink:href="#mdi:transfer" x="-9" y="-9" height="18" width="18.0" class="key trans tap glyph mdi:transfer"/>
</g>
<g transform="translate(364, 232) rotate(30.0)" class="key keypos-38">
<rect rx="4" ry="4" x="-27" y="-42" width="54" height="83" class="key"/>
<use href="#mdi:keyboard-space" xlink:href="#mdi:keyboard-space" x="-9" y="-9" height="18" width="18.0" class="key tap glyph mdi:keyboard-space"/>
</g>
<g transform="translate(506, 232) rotate(-30.0)" class="key keypos-39">
<rect rx="4" ry="4" x="-27" y="-42" width="54" height="83" class="key"/>
<text x="0" y="0" class="key tap">RET</text>
</g>
<g transform="translate(574, 221) rotate(-15.0)" class="key held keypos-40">
<rect rx="4" ry="4" x="-27" y="-27" width="54" height="54" class="key held"/>
</g>
<g transform="translate(638, 212)" class="key keypos-41">
<rect rx="4" ry="4" x="-27" y="-27" width="54" height="54" class="key"/>
<use href="#mdi:apple-keyboard-option" xlink:href="#mdi:apple-keyboard-option" x="-9" y="-9" height="18" width="18.0" class="key tap glyph mdi:apple-keyboard-option"/>
</g>
</g>
</g>
</svg>
